<svg width="107" height="35" viewBox="0 0 107 35" fill="none" xmlns="http://www.w3.org/2000/svg">
<path d="M0 0H22.5V35H0V0Z" fill="#F94D4E"/>
<path d="M22.5 9.54545H45V35H22.5V9.54545Z" fill="#FF999A"/>
<path d="M16.3828 26.6855C16.6497 26.6855 16.7832 26.8353 16.7832 27.1348C16.7832 27.3822 16.5944 27.6296 16.2168 27.877C15.5137 28.3392 14.9212 28.6419 14.4395 28.7852C13.5345 29.0521 12.584 29.1855 11.5879 29.1855C10.5918 29.1855 9.63151 29.0098 8.70703 28.6582C7.78906 28.3001 7.00456 27.8021 6.35352 27.1641C4.99284 25.8229 4.3125 24.0911 4.3125 21.9688C4.3125 20.9466 4.50456 20.0091 4.88867 19.1562C5.27279 18.2969 5.80339 17.5612 6.48047 16.9492C7.91276 15.6536 9.71289 15.0059 11.8809 15.0059C13.0983 15.0059 14.1693 15.2142 15.0938 15.6309C16.0768 16.0671 16.5684 16.4382 16.5684 16.7441C16.5684 16.8678 16.526 16.9753 16.4414 17.0664C16.3633 17.1576 16.2721 17.2031 16.168 17.2031C15.9596 17.2031 15.7708 17.112 15.6016 16.9297C15.4323 16.7409 15.2012 16.5716 14.9082 16.4219C14.6217 16.2721 14.306 16.1419 13.9609 16.0312C13.2578 15.8164 12.6165 15.709 12.0371 15.709C11.4642 15.709 10.9889 15.748 10.6113 15.8262V28.3457C11.0671 28.4238 11.4707 28.4629 11.8223 28.4629C12.1738 28.4629 12.5319 28.4401 12.8965 28.3945C13.2611 28.349 13.6191 28.2741 13.9707 28.1699C14.7585 27.9355 15.3509 27.5905 15.748 27.1348C15.8913 26.9655 16.0052 26.8483 16.0898 26.7832C16.1745 26.7181 16.2721 26.6855 16.3828 26.6855ZM21.2168 16.8613C20.5462 16.8613 20.0221 16.7116 19.6445 16.4121C19.2669 16.1126 19.0781 15.7188 19.0781 15.2305C19.0781 14.8203 19.2865 14.4688 19.7031 14.1758C20.1458 13.8633 20.6146 13.707 21.1094 13.707C21.6042 13.707 21.985 13.7559 22.252 13.8535C22.5254 13.9512 22.7565 14.0781 22.9453 14.2344C23.3229 14.5534 23.5117 14.9245 23.5117 15.3477C23.5117 15.7708 23.2969 16.1289 22.8672 16.4219C22.4375 16.7148 21.8874 16.8613 21.2168 16.8613ZM19.166 18.5703H23.3652V29H19.166V18.5703ZM30.582 29.1855C28.0299 29.1855 26.7539 28.0202 26.7539 25.6895L26.7441 19.2832L25.6211 19.332C25.2695 19.332 25.0938 19.1986 25.0938 18.9316C25.0938 18.6647 25.2826 18.5312 25.6602 18.5312L26.5977 18.5703H26.7441V17.0566L30.9336 15.1816V18.5703H32.2422L33.1699 18.5312C33.554 18.5312 33.7461 18.668 33.7461 18.9414C33.7461 19.0651 33.6908 19.1628 33.5801 19.2344C33.4759 19.2995 33.3555 19.332 33.2188 19.332L32.0078 19.2832H30.9336V28.4629C31.6953 28.4499 32.3301 28.2318 32.8379 27.8086C33.0788 27.6263 33.248 27.3919 33.3457 27.1055C33.4499 26.819 33.541 26.6367 33.6191 26.5586C33.7038 26.474 33.8014 26.4316 33.9121 26.4316C34.0228 26.4316 34.1172 26.4772 34.1953 26.5684C34.2734 26.653 34.3125 26.7572 34.3125 26.8809C34.3125 26.998 34.2799 27.1315 34.2148 27.2812C34.1497 27.4245 34.0521 27.5775 33.9219 27.7402C33.6289 28.1048 33.2904 28.3945 32.9062 28.6094C32.2096 28.9935 31.4349 29.1855 30.582 29.1855ZM37.7988 31.3047C38.196 31.181 38.4727 31.0215 38.6289 30.8262C38.8503 30.5658 39.1172 30.097 39.4297 29.4199L39.6543 28.9023L34.332 18.5703H38.7754L41.5488 24.4688L43.1504 20.7285C43.4434 20.0449 43.6354 19.5241 43.7266 19.166C43.8177 18.8079 43.9056 18.5898 43.9902 18.5117C44.0814 18.4336 44.1888 18.3945 44.3125 18.3945C44.4427 18.3945 44.5436 18.4336 44.6152 18.5117C44.6868 18.5898 44.7227 18.668 44.7227 18.7461C44.7227 18.8242 44.7129 18.9089 44.6934 19C44.6803 19.0846 44.6478 19.2018 44.5957 19.3516C44.5501 19.4948 44.4818 19.6771 44.3906 19.8984L40.3379 29.293C39.8561 30.4258 39.3939 31.2233 38.9512 31.6855C38.5736 32.0957 38.1895 32.3008 37.7988 32.3008C37.4147 32.3008 37.2227 32.1641 37.2227 31.8906C37.2227 31.6237 37.4147 31.4284 37.7988 31.3047ZM46.4707 28.2969C46.2428 28.1667 46.0443 28.0299 45.875 27.8867C45.7122 27.7435 45.6309 27.5905 45.6309 27.4277C45.6309 27.1152 45.7643 26.959 46.0312 26.959C46.207 26.959 46.4023 27.0566 46.6172 27.252C46.832 27.4473 47.0729 27.6198 47.3398 27.7695C47.6068 27.9128 47.8965 28.0365 48.209 28.1406C48.8535 28.3555 49.4492 28.4629 49.9961 28.4629C50.543 28.4629 50.9629 28.4271 51.2559 28.3555C51.5553 28.2839 51.806 28.1862 52.0078 28.0625C52.4375 27.7956 52.6523 27.4538 52.6523 27.0371C52.6523 26.653 52.4668 26.2656 52.0957 25.875C51.7832 25.543 51.3405 25.1458 50.7676 24.6836L49.0977 23.375C47.4245 22.0859 46.4382 20.9076 46.1387 19.8398C46.0345 19.4688 45.9824 19.0553 45.9824 18.5996C45.9824 18.1439 46.0833 17.6947 46.2852 17.252C46.4935 16.8092 46.7995 16.4219 47.2031 16.0898C48.069 15.3672 49.2474 15.0059 50.7383 15.0059C51.5 15.0059 52.1836 15.1198 52.7891 15.3477C53.3945 15.569 53.8079 15.7676 54.0293 15.9434C54.2507 16.1191 54.3613 16.2786 54.3613 16.4219C54.3613 16.7214 54.2376 16.8711 53.9902 16.8711C53.847 16.8711 53.694 16.7995 53.5312 16.6562C53.3685 16.513 53.1862 16.3893 52.9844 16.2852C52.7891 16.1745 52.5645 16.0768 52.3105 15.9922C51.7637 15.8099 51.2266 15.7188 50.6992 15.7188C49.7292 15.7188 49.2441 16.0378 49.2441 16.6758C49.2441 16.9427 49.332 17.1901 49.5078 17.418C49.8203 17.8151 50.429 18.3848 51.334 19.127C52.2454 19.8626 52.9746 20.5072 53.5215 21.0605C54.0749 21.6139 54.4948 22.112 54.7812 22.5547C55.237 23.2513 55.4648 23.9772 55.4648 24.7324C55.4648 25.4811 55.3314 26.1191 55.0645 26.6465C54.804 27.1673 54.4362 27.6165 53.9609 27.9941C52.9583 28.7884 51.7148 29.1855 50.2305 29.1855C48.7461 29.1855 47.4928 28.8893 46.4707 28.2969ZM61.959 28.375C62.265 28.4336 62.571 28.4629 62.877 28.4629C63.1895 28.4629 63.4889 28.4401 63.7754 28.3945C64.0684 28.3424 64.3451 28.2708 64.6055 28.1797C65.1589 27.9844 65.6048 27.737 65.9434 27.4375C66.1842 27.2292 66.36 27.125 66.4707 27.125C66.7181 27.125 66.8418 27.2357 66.8418 27.457C66.8418 27.6784 66.64 27.9421 66.2363 28.248C65.2988 28.873 64.1725 29.1855 62.8574 29.1855C61.1452 29.1855 59.7617 28.6712 58.707 27.6426C57.6719 26.627 57.1543 25.3086 57.1543 23.6875C57.1543 22.151 57.7044 20.8815 58.8047 19.8789C59.8984 18.8893 61.2721 18.3945 62.9258 18.3945C63.8698 18.3945 64.778 18.5898 65.6504 18.9805C66.3145 19.2669 66.6465 19.5632 66.6465 19.8691C66.6465 19.9993 66.6074 20.1003 66.5293 20.1719C66.4577 20.237 66.3763 20.2695 66.2852 20.2695C66.1484 20.2695 65.9727 20.1947 65.7578 20.0449C65.3346 19.6413 64.7064 19.3581 63.873 19.1953C63.5736 19.1367 63.2448 19.1074 62.8867 19.1074C62.5286 19.1074 62.2194 19.1335 61.959 19.1855V28.375ZM68.1699 23.7266C68.1699 22.9453 68.3099 22.2357 68.5898 21.5977C68.8763 20.9531 69.2669 20.3932 69.7617 19.918C70.8294 18.9023 72.1706 18.3945 73.7852 18.3945C75.4323 18.3945 76.7734 18.9219 77.8086 19.9766C78.7982 20.9727 79.293 22.2324 79.293 23.7559C79.293 25.2858 78.7852 26.5651 77.7695 27.5938C76.7214 28.6549 75.3802 29.1855 73.7461 29.1855C72.151 29.1855 70.8294 28.681 69.7812 27.6719C68.707 26.6302 68.1699 25.3151 68.1699 23.7266ZM73.4727 28.4531C73.5247 28.4596 73.5768 28.4629 73.6289 28.4629H73.7656C75.0807 28.4629 76.1842 28.056 77.0762 27.2422C78.0267 26.3633 78.502 25.2109 78.502 23.7852C78.502 22.3919 78.056 21.2624 77.1641 20.3965C76.2852 19.5371 75.1491 19.1074 73.7559 19.1074H73.6094C73.5638 19.1074 73.5182 19.1107 73.4727 19.1172V28.4531ZM88.4434 29.1855C87.5384 29.1855 86.6628 28.9805 85.8164 28.5703V32.125H81.8027V18.5703H85.8164V19.1074C86.6693 18.6322 87.5417 18.3945 88.4336 18.3945C89.3255 18.3945 90.1133 18.528 90.7969 18.7949C91.4805 19.0618 92.0664 19.4297 92.5547 19.8984C93.5638 20.888 94.0684 22.1543 94.0684 23.6973C94.0684 25.2533 93.5703 26.5456 92.5742 27.5742C91.5456 28.6484 90.1686 29.1855 88.4434 29.1855ZM88.4141 19.1074C87.4505 19.1074 86.5846 19.3743 85.8164 19.9082V27.7012C86.6953 28.209 87.6523 28.4629 88.6875 28.4629H88.9414C89.0195 28.4629 89.0944 28.4564 89.166 28.4434V19.166C88.9186 19.127 88.668 19.1074 88.4141 19.1074ZM105.631 26.627C105.885 26.627 106.012 26.7441 106.012 26.9785C106.012 27.1543 105.898 27.3626 105.67 27.6035C104.641 28.6582 103.232 29.1855 101.441 29.1855C99.8333 29.1855 98.4792 28.7005 97.3789 27.7305C96.2396 26.7214 95.6699 25.4453 95.6699 23.9023C95.6699 22.3268 96.1842 21.0312 97.2129 20.0156C98.3001 18.9349 99.7454 18.3945 101.549 18.3945C102.994 18.3945 104.208 18.834 105.191 19.7129C106.253 20.6569 106.783 21.8971 106.783 23.4336C106.783 23.6549 106.777 23.8893 106.764 24.1367H100.318V28.3262C100.761 28.4173 101.259 28.4629 101.812 28.4629C102.984 28.4629 103.984 28.0755 104.811 27.3008C104.98 27.1315 105.1 26.998 105.172 26.9004C105.322 26.7181 105.475 26.627 105.631 26.627ZM103.023 19.293C102.6 19.1693 102.122 19.1074 101.588 19.1074C101.054 19.1074 100.631 19.1432 100.318 19.2148V23.4238H103.023V19.293Z" fill="#343434"/>
</svg>
